<svg xmlns="http://www.w3.org/2000/svg" height="1200" width="1600" version="1.1" xmlns:xlink="http://www.w3.org/1999/xlink" xmlns:svgjs="http://svgjs.com/svgjs"><rect fill="#ffffff" width="1600" height="1200"></rect><g><path d="M1390.16 292.38C1370.93 320.13 1333.17 376.42 1273.63 398.63 1214.08 420.84 1193.5 393.87 1214.93 366.05 1237.64 336.6 1308.33 311.33 1355.1 309.28 1401.87 307.22 1421.96 319.99 1420.47 336.39 1418.55 357.89 1370.22 406.37 1298.11 403.24 1226 400.12 1281.86 311.97 1311.03 290.54 1338 270.74 1358.93 272.02 1361.77 293.8 1365.04 318.5 1344.6 396.86 1270.72 436.6" stroke="#1f2122" stroke-width="4" stroke-linecap="round" stroke-linejoin="round" opacity="1" fill="none"></path></g><g><path d="M268.17 410.3C245.03 419.31 179.21 462.15 200.89 488.95 222.58 515.75 291.61 506.36 295.12 495.9 299.55 482.61 249.53 492.62 240.6 519.27 231.67 545.91 301.84 526.06 308.25 545.61 313.45 561.49 270.91 579.97 270.84 609.83" stroke="#1f2122" stroke-width="4" stroke-linecap="round" stroke-linejoin="round" opacity="1" fill="none"></path></g><g><path d="M1081.38 332.07V624.02C1081.14 703.32 1016.98 767.48 937.68 767.48H679.37L539.76 862.88C537.35 864.56 534.47 865.52 531.59 865.52 523.42 865.52 516.93 859.03 516.93 850.86V767.48H496.02C416.73 767.48 352.57 703.32 352.57 624.02V332.07C352.57 252.77 416.73 188.61 496.02 188.61H937.92C1017.22 188.61 1081.38 252.77 1081.38 332.07Z" fill="#308fff" opacity="1" stroke-width="4" stroke="none"></path><path d="M679.37 767.48L657.26 782.62 516.93 809.05V767.48H679.37Z" fill="#000000" opacity="0.2" stroke-width="4" stroke="none"></path></g><g><path d="M718.34 614.66C793.82 614.66 855.01 553.47 855.01 478 855.01 402.53 793.82 341.34 718.34 341.34 642.87 341.34 581.68 402.53 581.68 478 581.68 553.47 642.87 614.66 718.34 614.66Z" fill="#a0e2ff" opacity="1" stroke-width="4" stroke="none"></path><path d="M791.3 459.8C789.74 454.78 785.03 451.48 779.85 451.48 779.69 451.48 779.69 451.33 779.69 451.33 781.42 448.5 781.89 445.21 780.95 442.07 779.38 437.05 774.67 433.75 769.5 433.75 769.34 433.75 769.34 433.6 769.34 433.6 771.38 429.99 771.69 425.59 769.65 421.99 766.83 417.12 761.02 414.92 755.69 416.49L725.09 425.44C714.27 428.58 703.75 433.13 694.02 438.77 690.26 440.97 688.53 445.36 689.63 449.44L707.52 510.64C708.15 512.83 709.72 514.87 711.75 515.97 721.95 521.93 753.18 540.45 757.73 541.86 779.07 544.53 756.63 511.42 752.24 504.05 752.24 503.89 752.24 503.89 752.39 503.89 755.22 503.1 788.17 493.38 788.17 493.38 799.46 490.55 800.41 473.92 788.79 470.94 788.64 470.94 788.64 470.78 788.79 470.63 791.46 467.8 792.56 463.56 791.3 459.8Z" fill="#ffffff" opacity="1" stroke-width="4" stroke="none"></path><path d="M698.89 518.48L677.24 444.27C676.14 440.66 672.37 438.62 668.76 439.56L642.87 447.09C639.27 448.19 637.23 451.95 638.17 455.56L659.82 529.93C660.92 533.54 664.68 535.58 668.29 534.64L694.34 526.95C697.95 525.86 700.3 521.93 698.89 518.48Z" fill="#ffffff" opacity="1" stroke-width="4" stroke="none"></path></g><g><path d="M1066.44 212.04C1050.65 203.3 1035.42 199.54 1025.27 203.58 1001.78 211.94 991.16 251.51 990.78 253.1 990.78 253.1 982.14 253.01 980.92 256.49 979.51 260.81 985.8 267.2 985.8 267.2 982.42 276.97 978.66 290.23 984.2 301.69 989.47 312.5 1003.28 318.14 1020.57 315.32L1020.01 321.71 1087.3 331.86C1088.14 329.04 1093.13 278.1 1094.07 268.42 1095.94 247.94 1091.72 225.94 1066.44 212.04Z" fill="#ac704e" opacity="1" stroke-width="4" stroke="none"></path><path d="M1020.67 315.41C1020.67 315.41 1031.01 312.97 1037.3 309.87L1019.26 330.45 1020.67 315.41Z" fill="#1f2122" opacity="0.2" stroke-width="4" stroke="none"></path><path d="M1250.35 957.28L1318.48 926.46 1314.9 907.44C1314.26 903.53 1313.22 899.77 1312.19 896.2 1311.44 893.66 1310.68 891.03 1309.84 888.4 1306.64 877.87 1302.79 866.12 1298.09 853.15 1293.3 839.81 1288.32 827.78 1283.24 816.69L1191.05 849.21C1203.74 868.47 1215.95 888.11 1223.57 903.62 1225.63 907.57 1227.33 911.89 1228.83 916.12L1250.35 957.28Z" fill="#ac704e" opacity="1" stroke-width="4" stroke="none"></path><path d="M1286.91 919.41C1274.5 924.67 1270.74 945.16 1262.85 946.38 1255.05 947.6 1262.29 927.87 1257.4 916.31 1253.08 906.16 1243.11 909.82 1228.55 916.02 1229.49 918.66 1230.24 921.29 1230.9 923.92 1232.31 930.03 1232.49 935.29 1231.09 939.43 1223.66 961.04 1204.21 972.41 1203.74 992.99L1203.83 993.56 1323.18 942.81V942.71C1320.93 930.97 1318.2 918.94 1315.01 907.19L1286.91 919.41Z" fill="#308fff" opacity="1" stroke-width="4" stroke="none"></path><path d="M1245.93 940.65L1231.58 939.3" stroke="#61b0ff" stroke-width="4" stroke-linecap="round" stroke-linejoin="round" opacity="1" fill="none"></path><path d="M1242.17 955.87L1226.21 950.82" stroke="#61b0ff" stroke-width="4" stroke-linecap="round" stroke-linejoin="round" opacity="1" fill="none"></path><path d="M978.75 301.31C970.95 297.84 963.53 311.37 956.67 318.61 953.47 321.99 949.62 323.68 948.02 320.49 941.26 307.05 973.02 303.19 975.93 297.46 978.85 291.73 974.06 287.88 962.5 289.76 945.2 284.96 929.13 292.76 922.09 304.13 914.38 316.63 915.04 320.58 900 347.36 897.28 352.25 894.46 357.51 891.82 362.78L936.28 390.88 960.62 349.34C960.52 349.34 987.4 305.17 978.75 301.31Z" fill="#ac704e" opacity="1" stroke-width="4" stroke="none"></path><path d="M1132.5 372.46C1120 349.9 1098.86 336.84 1087.3 332.05 1087.58 331.2 1088.14 326.59 1088.8 320.2L1020.01 320.49 1018.98 330.92C1018.98 330.92 1000.84 331.29 988.25 334.77 977.72 337.68 970.01 340.69 960.33 349.34L931.48 383.83 892.2 361.55C873.22 399.33 858.65 445.95 886.28 468.41 922.84 498.2 979.51 443.5 979.51 443.5L998.96 507.03 1104.78 508.72 1123.76 524.04C1123.76 524.04 1138.8 522.63 1147.63 517.46 1189.08 493.78 1146.97 398.39 1132.5 372.46Z" fill="#ffffff" opacity="1" stroke-width="4" stroke="none"></path><path d="M1175.73 371.42C1168.03 311.84 1107.5 313.72 1098.86 269.55 1093.69 243.14 1094.35 222.09 1069.07 208.09 1053.28 199.35 1035.42 199.54 1025.27 203.58 1012.59 208.09 1003.94 220.49 998.96 231.21L1012.68 243.33C1012.68 243.33 1034.89 231.03 1034.48 231.96 1024.9 244.46 1020.39 250.75 1020.39 250.75L1035.23 265.04C1035.23 265.04 1063.99 249.63 1069.91 268.05 1075.83 286.47 1046.89 299.34 1046.89 299.34 1041.16 353.1 1065.21 371.52 1065.21 371.52H1086.73C1086.73 371.52 1080.01 343.07 1081.57 344.64 1090.21 356.2 1105.15 371.52 1105.15 371.52L1175.73 371.42Z" fill="#221f1f" opacity="1" stroke-width="4" stroke="none"></path><path d="M1104.68 506.94L1118.03 426.21" stroke="#9f9f9f" stroke-width="4" stroke-linecap="round" stroke-linejoin="round" opacity="1" fill="none"></path><path d="M1111.36 474.23L1124.8 479.97" stroke="#9f9f9f" stroke-width="4" stroke-linecap="round" stroke-linejoin="round" opacity="1" fill="none"></path><path d="M980.26 442.85L1000.84 425.74" stroke="#9f9f9f" stroke-width="4" stroke-linecap="round" stroke-linejoin="round" opacity="1" fill="none"></path><path d="M937.4 300.28C944.06 295.22 953.69 291.31 962.35 289.81" stroke="#23211f" stroke-width="4" stroke-linecap="round" stroke-linejoin="round" opacity="1" fill="none"></path><path d="M994.92 275.75L1002.81 275.38" stroke="#23211f" stroke-width="4" stroke-linecap="round" stroke-linejoin="round" opacity="1" fill="none"></path><path d="M1021.23 315.22C1025.09 313.81 1028.84 312.4 1032.6 310.99" stroke="#23211f" stroke-width="4" stroke-linecap="round" stroke-linejoin="round" opacity="1" fill="none"></path><path d="M1020.01 331.01H1028.56" stroke="#9f9f9f" stroke-width="4" stroke-linecap="round" stroke-linejoin="round" opacity="1" fill="none"></path><path d="M1043.97 279.89L1052.43 275.75" stroke="#23211f" stroke-width="4" stroke-linecap="round" stroke-linejoin="round" opacity="1" fill="none"></path><path d="M1005.16 259.31C1006.83 259.31 1008.17 257.96 1008.17 256.3 1008.17 254.64 1006.83 253.29 1005.16 253.29 1003.5 253.29 1002.15 254.64 1002.15 256.3 1002.15 257.96 1003.5 259.31 1005.16 259.31Z" fill="#221f1f" opacity="1" stroke-width="4" stroke="none"></path><path d="M1096.51 222.47C1111.09 222.47 1122.92 210.64 1122.92 196.06 1122.92 181.47 1111.09 169.65 1096.51 169.65 1081.92 169.65 1070.1 181.47 1070.1 196.06 1070.1 210.64 1081.92 222.47 1096.51 222.47Z" fill="#221f1f" opacity="1" stroke-width="4" stroke="none"></path><path d="M1046.89 184.97L1110.42 243.61" stroke="#61b0ff" stroke-width="4" stroke-linecap="round" stroke-linejoin="round" opacity="1" fill="none"></path><path d="M1292.55 838.87C1289.45 831.07 1286.25 823.64 1283.05 816.69L1191.8 850.52 1292.55 838.87Z" fill="#23211f" opacity="0.2" stroke-width="4" stroke="none"></path><path d="M1105.15 941.77C1106.47 929.93 1107.6 916.31 1108.44 900.99 1109.2 888.02 1109.38 875.8 1109.01 864.52L1012.96 864.43C1017 886.99 1020.01 908.13 1020.2 924.58 1020.2 927.87 1020.2 930.87 1020.01 933.88L1027.06 973.54 1042.28 985.38 1096.98 979.18 1102.81 959.72C1103.37 955.68 1103.93 951.64 1104.4 947.6 1104.78 945.63 1105.06 943.75 1105.15 941.77Z" fill="#ac704e" opacity="1" stroke-width="4" stroke="none"></path><path d="M1041.06 975.04C1033.36 973.16 1047.83 957.75 1047.83 945.25 1047.83 933.88 1036.74 933.69 1020.1 933.69H1020.01C1019.63 939.05 1018.79 943.75 1017.47 947.51 1016.63 950.04 1015.22 952.49 1013.43 954.46 998.02 971.47 975.84 974.95 967.29 992.9L967.38 996.85 1095.57 995.06 1096.98 992.9C1099.42 981.81 1101.4 970.63 1102.9 959.54H1073.77C1060.42 959.63 1048.86 977.02 1041.06 975.04Z" fill="#308fff" opacity="1" stroke-width="4" stroke="none"></path><path d="M1109.1 864.62H1013.06L1109.01 889.33C1109.29 880.69 1109.29 872.42 1109.1 864.62Z" fill="#23211f" opacity="0.2" stroke-width="4" stroke="none"></path><path d="M1220.94 713.6C1193.96 675.63 1187.57 627.79 1164.36 580.52 1141.15 533.25 1104.59 506.94 1104.59 506.94L1072.26 506.94C1072.26 506.84 1072.17 506.84 1072.17 506.84H998.96C998.96 506.84 981.2 623 996.33 765.57 999.52 796.2 1007.14 833.89 1012.96 866.5L1125.45 867.06C1134.1 836.14 1099.8 795.73 1091.34 759.74 1085.89 736.24 1089.55 707.86 1094.07 678.64 1108.73 709.09 1124.98 741.04 1142.09 772.05 1155.9 796.95 1174.89 824.68 1191.9 850.62L1300.82 810.68C1292.08 760.68 1234.66 732.86 1220.94 713.6Z" fill="#61b0ff" opacity="1" stroke-width="4" stroke="none"></path><path d="M1104.68 506.94L1112.79 513.57 1123.67 524.14C1123.95 524.14 1135.13 523.01 1143.69 519.44 1121.98 502.9 1113.8 451.3 1113.8 451.3L1104.68 506.94Z" fill="#9f9f9f" opacity="0.2" stroke-width="4" stroke="none"></path><path d="M917.48 375.84L902.73 422.83 931.58 383.83 917.48 375.84Z" fill="#9f9f9f" opacity="0.2" stroke-width="4" stroke="none"></path><path d="M1025.37 961.98L1012.9 955.11" stroke="#61b0ff" stroke-width="4" stroke-linecap="round" stroke-linejoin="round" opacity="1" fill="none"></path><path d="M1015.5 973.54L1003.97 963.66" stroke="#61b0ff" stroke-width="4" stroke-linecap="round" stroke-linejoin="round" opacity="1" fill="none"></path><path d="M1105.25 616.89C1124.33 711.53 1155.43 724.5 1159.76 801.56 1153.37 791.5 1144.16 776.19 1138.89 766.69 1111.45 713.69 1117.28 729.01 1094.72 679.48L1105.25 616.89Z" fill="#5f758b" opacity="0.2" stroke-width="4" stroke="none"></path><path d="M1139.27 542.27H1122.07L1127.24 561.45C1129.87 571.13 1140.4 578.93 1148.1 578.93 1154.49 578.93 1158.16 576.95 1160.41 573.76" stroke="#5f758b" stroke-width="4" stroke-linecap="round" stroke-linejoin="round" opacity="1" fill="none"></path><path d="M1093.97 678.64C1097.17 651.85 1104.97 625.63 1106.56 599.6" stroke="#576b7f" stroke-width="4" stroke-linecap="round" stroke-linejoin="round" opacity="1" fill="none"></path><path d="M1070.95 579.02C1080.53 579.02 1086.26 571.22 1083.73 561.63L1078.56 542.56H1043.79L1048.96 561.63C1051.59 571.22 1061.45 579.02 1070.95 579.02Z" stroke="#5f758b" stroke-width="4" stroke-linecap="round" stroke-linejoin="round" opacity="1" fill="none"></path><path d="M1018.41 507.97C1013.06 549.32 1011.18 658.52 1021.98 722.24 1032.51 784.74 1047.92 816.41 1051.21 863.96" stroke="#5f758b" stroke-width="4" stroke-linecap="round" stroke-linejoin="round" opacity="1" fill="none"></path><path d="M903.01 422.83L930.83 384.3" stroke="#9f9f9f" stroke-width="4" stroke-linecap="round" stroke-linejoin="round" opacity="1" fill="none"></path><path d="M1325.25 956.81L1206.09 1007.09C1204.4 1002.58 1203.55 997.5 1203.64 992.71L1323.09 942.34C1324.88 951.64 1325.25 956.81 1325.25 956.81Z" fill="#1f2122" opacity="1" stroke-width="4" stroke="none"></path><path d="M1093.31 1007.09H964C964.28 1002.2 965.41 997.41 967.38 992.99H1097.07C1094.91 1002.48 1093.31 1007.09 1093.31 1007.09Z" fill="#1f2122" opacity="1" stroke-width="4" stroke="none"></path></g><g><path d="M826.41 991.62H710.04L671.21 869.17C668.56 860.76 660.93 855.12 652.08 855.12H489.69C478.63 855.12 469.56 864.08 469.56 875.14 469.56 877.24 469.89 879.24 470.56 881.23L505.4 991.62 506.62 995.38C508.94 1002.35 515.36 1007.11 522.77 1007.11L815.01 1007.22C816.23 1007.22 817.45 1007 818.55 1006.66 824.86 1004.67 828.4 997.93 826.41 991.62Z" fill="#a0e2ff" opacity="1" stroke-width="4" stroke="none"></path><path d="M587.92 958.1C587.37 958.1 586.92 957.88 586.59 957.55L586.48 957.44C577.19 949.59 546.99 923.48 551.42 917.51 552.19 916.51 553.41 915.96 555.07 915.96 563.03 915.96 579.4 928.68 580.79 929.39 581.39 930.34 590.35 915.96 598.76 915.96 600.31 915.96 601.86 916.51 603.19 917.51 610.71 923.48 596.08 952.31 589.58 957.44 589.03 957.88 588.47 958.1 587.92 958.1Z" fill="#308fff" opacity="1" stroke-width="4" stroke="none"></path><path d="M579.07 915.26C577.08 915.26 574.31 911.06 572.54 905.53 570.66 899.67 570.78 894.36 572.77 893.69 572.88 893.69 572.99 893.58 573.1 893.58 575.09 893.58 577.85 897.79 579.62 903.32 581.5 909.18 581.39 914.49 579.4 915.15 579.29 915.26 579.18 915.26 579.07 915.26Z" fill="#308fff" opacity="1" stroke-width="4" stroke="none"></path></g></svg>